<?xml version="1.0" encoding="UTF-8"?>
<!DOCTYPE svg PUBLIC "-//W3C//DTD SVG 1.1//EN" "http://www.w3.org/Graphics/SVG/1.1/DTD/svg11.dtd">
<!-- Creator: CorelDRAW X8 -->
<svg xmlns="http://www.w3.org/2000/svg" xml:space="preserve" width="105.833mm" height="21.1666mm" version="1.1" style="shape-rendering:geometricPrecision; text-rendering:geometricPrecision; image-rendering:optimizeQuality; fill-rule:evenodd; clip-rule:evenodd"
viewBox="0 0 10583 2117"
 xmlns:xlink="http://www.w3.org/1999/xlink">
 <defs>
  <style type="text/css">
   <![CDATA[
    .fil3 {fill:#5B5B5B}
    .fil1 {fill:#2A7E6F;fill-rule:nonzero}
    .fil2 {fill:#2DB290;fill-rule:nonzero}
    .fil0 {fill:#5B5B5B;fill-rule:nonzero}
   ]]>
  </style>
 </defs>
 <g id="Слой_x0020_1">
  <metadata id="CorelCorpID_0Corel-Layer"/>
  <g id="_1026797568">
   <path class="fil0" d="M3627 1079l-417 0c-53,0 -79,29 -79,86l0 386c0,54 28,81 85,81l411 0 1 110 -443 -1c-110,0 -165,-55 -165,-165l1 -442c0,-111 55,-166 165,-166l442 0 1 111 -2 0zm276 111l0 372c0,46 24,70 72,70l298 0 0 -442 111 0 0 552 -426 0c-110,0 -165,-56 -166,-166l0 -386 110 0 1 0zm1234 108l-438 0c-36,0 -55,19 -55,54 0,37 18,56 55,56l274 0c110,0 166,47 166,142l0 54c-2,92 -58,138 -169,138l-436 0 0 -110 422 0c46,0 70,-21 72,-61 0,-33 -24,-50 -71,-51l-258 0c-110,0 -166,-45 -166,-136l0 -56c0,-93 56,-139 166,-139l437 0 0 108 1 1zm272 -110l0 -219 110 0 0 219 166 0 0 110 -166 0 0 444 -110 0 0 -444 -166 0 0 -111 166 0 0 1zm789 112l-245 0c-48,0 -72,24 -73,71l0 206c0,37 32,56 96,56l218 0c50,0 74,-14 75,-42l0 -220c0,-47 -23,-70 -70,-71l-1 0zm182 56l0 250c0,91 -56,136 -168,137l-277 0c-110,-1 -165,-48 -166,-142l0 -246c1,-110 57,-165 167,-166l276 0c110,0 166,55 167,166l1 1zm483 14c-1,-46 -24,-69 -70,-70l-175 0 0 442 -110 0 -1 -552 662 0c111,0 167,56 167,166l0 386 -112 0 -1 -370c0,-48 -25,-72 -74,-73l-172 0 0 441 -114 0 0 -372 0 2zm701 262l497 0 0 110 -606 0 0 -773 109 0 0 663zm629 -446l112 0 0 557 -112 0 0 -557zm112 -103l-114 0 0 -114 114 0 0 114zm739 715c0,110 -55,166 -166,166l-332 0 0 -111 315 0c49,0 73,-23 73,-70l0 -484 -293 0c-63,1 -95,30 -95,86l0 172c0,51 26,76 77,76l254 0 0 110 -277 0c-110,0 -165,-54 -166,-162l1 -221c1,-113 56,-170 166,-170l442 0 0 608 1 0zm239 -608l328 0c112,0 168,56 169,166l0 388 -110 0 0 -364c0,-52 -24,-79 -73,-79l-315 -1 0 442 -110 0 0 -773 111 0 0 221zm791 -2l0 -219 110 0 0 219 166 0 0 110 -166 0 0 444 -110 0 0 -444 -166 0 0 -111 166 0 0 1z"/>
   <g>
    <path class="fil1" d="M1952 1687l0 0c102,0 185,-83 185,-185l0 -5c0,-102 -83,-185 -185,-185 -102,0 -185,83 -185,185l0 5c0,102 83,185 185,185z"/>
    <path class="fil1" d="M864 1711l0 0c115,0 208,-93 208,-208l0 -6c0,-115 -93,-208 -208,-208 -115,0 -208,93 -208,208l0 6c0,115 93,208 208,208z"/>
    <path class="fil2" d="M1408 1155l0 0c113,0 205,-92 205,-205l0 -6c0,-113 -92,-205 -205,-205 -113,0 -205,92 -205,205l0 6c0,113 92,205 205,205z"/>
    <g>
     <path class="fil3" d="M1636 1503l0 -7c0,-126 -102,-228 -228,-228 -126,0 -228,102 -228,228l0 0 0 7c0,126 102,228 228,228l0 0c126,0 228,-102 228,-228z"/>
     <path class="fil3" d="M1732 944l0 6c0,122 99,220 220,220l0 0c122,0 220,-99 220,-220l0 0 0 -6c0,-122 -99,-220 -220,-220 -122,0 -220,99 -220,220z"/>
     <path class="fil0" d="M864 1202l0 0c138,0 251,-112 251,-251l0 -7c0,-138 -112,-251 -251,-251 -138,0 -251,112 -251,251l0 7c0,138 112,251 251,251z"/>
     <path class="fil3" d="M1408 1272l228 225c-3,-228 99,-326 319,-329l-223 -220c0,220 -96,323 -324,324l0 0z"/>
     <path class="fil0" d="M1180 1501c-2,-208 -86,-305 -314,-303l249 -245c-5,229 91,314 298,319l-233 230 0 -1z"/>
    </g>
    <g>
     <path class="fil2" d="M2455 1411l0 0c82,0 149,-67 149,-149l0 -4c0,-82 -67,-149 -149,-149 -82,0 -149,67 -149,149l0 4c0,82 67,149 149,149z"/>
     <path class="fil2" d="M331 1411l0 0c82,0 149,-67 149,-149l0 -4c0,-82 -67,-149 -149,-149 -82,0 -149,67 -149,149l0 4c0,82 67,149 149,149z"/>
    </g>
    <g>
     <path class="fil1" d="M1070 603l0 0c82,0 149,-67 149,-149l0 -4c0,-82 -67,-149 -149,-149 -82,0 -149,67 -149,149l0 4c0,82 67,149 149,149z"/>
     <path class="fil1" d="M1716 603l0 0c82,0 149,-67 149,-149l0 -4c0,-82 -67,-149 -149,-149 -82,0 -149,67 -149,149l0 4c0,82 67,149 149,149z"/>
    </g>
   </g>
  </g>
 </g>
</svg>
